<svg xmlns="http://www.w3.org/2000/svg" width="11.389" height="11.389" viewBox="0 0 11.389001 11.389019"><path d="M.118 11.328c-.105-.101-.117-.2-.118-.95C0 9.61.015 9.49.126 9.4c.047-.037 1.348-.048 5.568-.048s5.521.011 5.568.048c.111.089.127.21.127.968s-.016.879-.127.967c-.095.076-11.066.068-11.144-.008zm0-4.674c-.105-.102-.117-.2-.118-.951 0-.768.015-.887.126-.976.089-.07 11.047-.07 11.136 0 .111.089.127.21.127.968s-.016.879-.127.967C11.167 6.737.196 6.73.118 6.654zm0-4.674C.013 1.878.001 1.78 0 1.029 0 .26.015.142.126.053c.089-.07 11.047-.07 11.136 0 .111.089.127.209.127.967 0 .759-.016.88-.127.968-.095.075-11.066.067-11.144-.008z"/></svg>